<?xml version="1.0" encoding="utf-8"?>
<!-- Generator: Adobe Illustrator 22.0.0, SVG Export Plug-In . SVG Version: 6.00 Build 0)  -->
<svg version="1.1" id="Layer_1" xmlns="http://www.w3.org/2000/svg" xmlns:xlink="http://www.w3.org/1999/xlink" x="0px" y="0px"
	 viewBox="0 0 500 500" style="enable-background:new 0 0 500 500;" xml:space="preserve">
<style type="text/css">
	.st0{fill:#C9C9C9;}
	.st1{fill:#A0A0A0;}
	.st2{fill:#71CCFF;}
	.st3{fill:#231F20;}
	.st4{fill:#F9F9F9;}
	.st5{fill:#7A7979;}
	.st6{fill:#4C4C4C;}
	.st7{fill:#F9B630;}
	.st8{fill:#D88A0E;}
	.st9{fill:#FFEDCC;}
	.st10{fill:#C0E7F9;}
	.st11{fill:#08B26C;}
	.st12{fill:#15A9EA;}
	.st13{fill:none;stroke:#C9C9C9;stroke-width:10;stroke-linecap:round;stroke-linejoin:round;stroke-miterlimit:10;}
	.st14{fill:none;stroke:#231F20;stroke-width:10;stroke-linecap:round;stroke-linejoin:round;stroke-miterlimit:10;}
	.st15{fill:#FFFFFF;}
	.st16{fill:#35EF9F;}
	.st17{fill:#22A6E0;}
	.st18{fill:#FC3A6D;}
	.st19{fill:#FFA9C8;}
	.st20{fill:#038E52;}
	.st21{fill:#E2074B;}
</style>
<g>
	<g>
		<path class="st2" d="M465,495H35c-16.6,0-30-13.4-30-30V35C5,18.4,18.4,5,35,5h430c16.6,0,30,13.4,30,30v430
			C495,481.6,481.6,495,465,495z"/>
	</g>
</g>
<g>
	<g>
		<path class="st11" d="M198,495v-84c0-8.3-6.7-15-15-15c0,0-178,0-178,0v69c0,16.6,13.4,30,30,30C35,495,198,495,198,495z"/>
	</g>
</g>
<g>
	<g>
		<path class="st2" d="M5,292h178c8.3,0,15-6.7,15-15v-74v-47.1V114V5H35C18.4,5,5,18.4,5,35v256.5L5,292z"/>
	</g>
</g>
<g>
	<g>
		<path class="st10" d="M25,47c-2.8,0-5-2.2-5-5v-7c0-2.8,2.2-5,5-5s5,2.2,5,5v7C30,44.8,27.8,47,25,47z"/>
	</g>
</g>
<g>
	<g>
		<path class="st10" d="M25,277c-2.8,0-5-2.2-5-5V63.3c0-2.8,2.2-5,5-5s5,2.2,5,5V272C30,274.8,27.8,277,25,277z"/>
	</g>
</g>
<g>
	<g>
		<path class="st16" d="M25,473.5c-2.8,0-5-2.2-5-5V437c0-2.8,2.2-5,5-5s5,2.2,5,5v31.5C30,471.3,27.8,473.5,25,473.5z"/>
	</g>
</g>
<g>
	<g>
		<path class="st0" d="M302,84V5H198v109v41.9V203v74c0,8.3-6.7,15-15,15H5v104h178c8.3,0,15,6.7,15,15v84h104v-99v-17.5V292v-74
			c0-8.3,6.7-15,15-15h178V99H317C308.7,99,302,92.3,302,84z"/>
	</g>
</g>
<g>
	<g>
		<path class="st3" d="M5,76c-2.8,0-5-2.2-5-5V35C0,15.7,15.7,0,35,0h163c2.8,0,5,2.2,5,5s-2.2,5-5,5H35c-13.8,0-25,11.2-25,25v36
			C10,73.8,7.8,76,5,76z"/>
	</g>
</g>
<g>
	<g>
		<path class="st3" d="M5,112c-2.8,0-5-2.2-5-5v-8c0-2.8,2.2-5,5-5s5,2.2,5,5v8C10,109.8,7.8,112,5,112z"/>
	</g>
</g>
<g>
	<g>
		<path class="st3" d="M5,296.5c-2.8,0-5-2.2-5-5V128.2c0-2.8,2.2-5,5-5s5,2.2,5,5v163.3C10,294.3,7.8,296.5,5,296.5z"/>
	</g>
</g>
<g>
	<g>
		<path class="st3" d="M198,500H35c-19.3,0-35-15.7-35-35v-69c0-2.8,2.2-5,5-5s5,2.2,5,5v69c0,13.8,11.2,25,25,25h163
			c2.8,0,5,2.2,5,5S200.8,500,198,500z"/>
	</g>
</g>
<g>
	<g>
		<path class="st11" d="M465,5H302v79c0,8.3,6.7,15,15,15c0,0,178,0,178,0V35C495,18.4,481.6,5,465,5z"/>
	</g>
</g>
<g>
	<g>
		<path class="st3" d="M465,500H301.5c-2.8,0-5-2.2-5-5s2.2-5,5-5H465c13.8,0,25-11.2,25-25V203.8c0-2.8,2.2-5,5-5s5,2.2,5,5V465
			C500,484.3,484.3,500,465,500z"/>
	</g>
</g>
<g>
	<g>
		<path class="st3" d="M495,104c-2.8,0-5-2.2-5-5V35c0-13.8-11.2-25-25-25H302c-2.8,0-5-2.2-5-5s2.2-5,5-5h163c19.3,0,35,15.7,35,35
			v64C500,101.8,497.8,104,495,104z"/>
	</g>
</g>
<g>
	<g>
		<path class="st1" d="M352.7,191.3c-19.4-38.4-56.6-61.9-99.3-63c-1.1,0-2.2,0-3.3,0s-2.2,0-3.3,0c-17.4,0.4-33.9,4.6-48.7,12V203
			v74c0,8.3-6.7,15-15,15h-38c2.9,6.4,6.4,12.6,10.5,18.5l64.4,92.7c6.9,9.9,18.1,15.8,30.1,15.8s23.3-5.9,30.1-15.8l21.9-31.5V292
			v-74c0-8.3,6.7-15,15-15h40.8C356.3,199,354.6,195.1,352.7,191.3z M250,290.7c-26.2,0-47.6-21.3-47.6-47.6s21.3-47.6,47.6-47.6
			s47.6,21.3,47.6,47.6S276.2,290.7,250,290.7z"/>
	</g>
</g>
<g>
	<g>
		<path class="st3" d="M495,104H317c-11,0-20-9-20-20V5c0-2.8,2.2-5,5-5s5,2.2,5,5v79c0,5.5,4.5,10,10,10h178c2.8,0,5,2.2,5,5
			S497.8,104,495,104z"/>
	</g>
</g>
<g>
	<g>
		<path class="st3" d="M302,500c-2.8,0-5-2.2-5-5V218c0-11,9-20,20-20h178c2.8,0,5,2.2,5,5s-2.2,5-5,5H317c-5.5,0-10,4.5-10,10v277
			C307,497.8,304.8,500,302,500z"/>
	</g>
</g>
<g>
	<g>
		<path class="st3" d="M198,500c-2.8,0-5-2.2-5-5v-84c0-5.5-4.5-10-10-10H5c-2.8,0-5-2.2-5-5s2.2-5,5-5h178c11,0,20,9,20,20v84
			C203,497.8,200.8,500,198,500z"/>
	</g>
</g>
<g>
	<g>
		<path class="st3" d="M183,297H5c-2.8,0-5-2.2-5-5s2.2-5,5-5h178c5.5,0,10-4.5,10-10V5c0-2.8,2.2-5,5-5s5,2.2,5,5v272
			C203,288,194,297,183,297z"/>
	</g>
</g>
<g>
	<g>
		<path class="st7" d="M252.8,148.2c-0.9,0-1.9,0-2.8,0s-1.9,0-2.8,0c-75.9,1.9-118.6,88.5-75.3,150.9l64.4,92.7
			c6.6,9.6,20.8,9.6,27.4,0l64.4-92.7C371.4,236.8,328.7,150.2,252.8,148.2z M250,274.8c-17.5,0-31.7-14.2-31.7-31.7
			s14.2-31.7,31.7-31.7s31.7,14.2,31.7,31.7S267.5,274.8,250,274.8z"/>
	</g>
</g>
<g>
	<g>
		<path class="st3" d="M250,404C250,404,250,404,250,404c-7.1,0-13.8-3.5-17.8-9.3L167.8,302c-10.9-15.7-17.2-33.9-18.1-52.6
			c-0.9-17.6,2.9-35.4,11-51.3c16.9-33.4,49.2-53.9,86.3-54.8c2-0.1,3.9-0.1,5.9,0c37.1,1,69.4,21.4,86.3,54.8
			c8.1,15.9,11.9,33.7,11,51.3c-0.9,18.7-7.2,36.9-18.1,52.6l-64.4,92.7C263.8,400.5,257.1,404,250,404z M250,153.2
			c-0.9,0-1.8,0-2.7,0c-33.4,0.9-62.4,19.3-77.7,49.3c-15.5,30.6-13.1,65.6,6.4,93.7l64.4,92.7c2.2,3.2,5.7,5,9.6,5
			c3.9,0,7.4-1.8,9.6-5l64.4-92.7c19.5-28.1,21.9-63.1,6.4-93.7c-15.2-30-44.3-48.5-77.7-49.3c0,0,0,0,0,0
			C251.8,153.2,250.9,153.2,250,153.2z"/>
	</g>
</g>
<g>
	<g>
		<path class="st9" d="M247.7,173.7c-2.7,0-4.9-2.2-5-4.9c-0.1-2.8,2.1-5.1,4.9-5.1c0.8,0,1.6,0,2.4,0c2.8,0,5,2.2,5,5s-2.2,5-5,5
			c-0.7,0-1.4,0-2.2,0C247.8,173.7,247.7,173.7,247.7,173.7z"/>
	</g>
</g>
<g>
	<g>
		<path class="st9" d="M188.7,292.5c-1.6,0-3.1-0.7-4.1-2.1c-17.3-24.9-19.4-55.9-5.6-83c9.9-19.6,26.6-33.8,47-40.1
			c2.6-0.8,5.4,0.7,6.3,3.3c0.8,2.6-0.7,5.4-3.3,6.3c-17.8,5.5-32.3,17.9-41,35.1c-12.1,23.8-10.2,51,4.9,72.8c1.6,2.3,1,5.4-1.3,7
			C190.7,292.2,189.7,292.5,188.7,292.5z"/>
	</g>
</g>
<g>
	<g>
		<path class="st3" d="M250,279.8c-20.3,0-36.7-16.5-36.7-36.7s16.5-36.7,36.7-36.7c20.3,0,36.7,16.5,36.7,36.7
			S270.3,279.8,250,279.8z M250,216.3c-14.7,0-26.7,12-26.7,26.7s12,26.7,26.7,26.7s26.7-12,26.7-26.7S264.7,216.3,250,216.3z"/>
	</g>
</g>
<g>
	<g>
		<path class="st4" d="M11.7,318.7H5c-2.8,0-5-2.2-5-5s2.2-5,5-5h6.7c2.8,0,5,2.2,5,5S14.4,318.7,11.7,318.7z"/>
	</g>
</g>
<g>
	<g>
		<path class="st4" d="M126.8,318.7H31.5c-2.8,0-5-2.2-5-5s2.2-5,5-5h95.3c2.8,0,5,2.2,5,5S129.5,318.7,126.8,318.7z"/>
	</g>
</g>
<g>
	<g>
		<path class="st4" d="M218.3,18c-2.8,0-5-2.2-5-5V5c0-2.8,2.2-5,5-5s5,2.2,5,5v8C223.3,15.8,221,18,218.3,18z"/>
	</g>
</g>
<g>
	<g>
		<path class="st4" d="M218.3,112c-2.8,0-5-2.2-5-5V35c0-2.8,2.2-5,5-5s5,2.2,5,5v72C223.3,109.8,221,112,218.3,112z"/>
	</g>
</g>
<g>
	<g>
		<path class="st4" d="M218.3,486.5c-2.8,0-5-2.2-5-5V425c0-2.8,2.2-5,5-5s5,2.2,5,5v56.5C223.3,484.3,221,486.5,218.3,486.5z"/>
	</g>
</g>
<g>
	<g>
		<path class="st4" d="M495,125.5h-13c-2.8,0-5-2.2-5-5s2.2-5,5-5h13c2.8,0,5,2.2,5,5S497.8,125.5,495,125.5z"/>
	</g>
</g>
<g>
	<g>
		<path class="st4" d="M455.5,125.5H342c-2.8,0-5-2.2-5-5s2.2-5,5-5h113.5c2.8,0,5,2.2,5,5S458.3,125.5,455.5,125.5z"/>
	</g>
</g>
<g>
	<g>
		<path class="st16" d="M25,424c-2.8,0-5-2.2-5-5v-3.3c0-2.8,2.2-5,5-5s5,2.2,5,5v3.3C30,421.7,27.8,424,25,424z"/>
	</g>
</g>
</svg>
