<svg width="128" height="128" xmlns="http://www.w3.org/2000/svg" data-name="Layer 3">
 <title>Artboard 111</title>

 <g>
  <title>Layer 1</title>
  <path fill="#ffffff" id="svg_1" d="m97.092,36.078l-66.184,0a2.111,2.111 0 0 0 0,4.222l66.184,0a2.111,2.111 0 0 0 0,-4.222z"/>
  <path fill="#ffffff" id="svg_2" d="m97.092,61.889l-66.184,0a2.111,2.111 0 0 0 0,4.222l66.184,0a2.111,2.111 0 0 0 0,-4.222z"/>
  <path fill="#ffffff" id="svg_3" d="m97.092,87.7l-66.184,0a2.111,2.111 0 0 0 0,4.222l66.184,0a2.111,2.111 0 0 0 0,-4.222z"/>
 </g>
</svg>